<svg xmlns="http://www.w3.org/2000/svg" viewBox="0 0 165.19 270.42"><defs><style>.cls-1{fill:#808285;}.cls-2{fill:#e6e7e8;}.cls-3{fill:#dcddde;}.cls-4{fill:#4285F4;}.cls-5{fill:#f1f2f2;}.cls-6{fill:#d1d3d4;}</style></defs><title>Asset 1</title><g id="Layer_2" data-name="Layer 2"><g id="icons"><path class="cls-1" d="M106.16,66H99.94V45A19.39,19.39,0,0,0,80.57,25.59H70.89A25.62,25.62,0,0,1,45.3,0h6.22A19.39,19.39,0,0,0,70.89,19.37h9.68A25.62,25.62,0,0,1,106.16,45Z"/><path class="cls-2" d="M103.05,169.7a139.1,139.1,0,0,1-62.14-14.21v52.79a62.14,62.14,0,1,0,124.28,0V155.49a139.1,139.1,0,0,1-62.14,14.21"/><path class="cls-3" d="M127.15,66h-24.1V169.7a139.1,139.1,0,0,0,62.14-14.21V104A38.15,38.15,0,0,0,127.15,66Z"/><path class="cls-4" d="M103.05,66H79a38.15,38.15,0,0,0-38,38v51.47a139.1,139.1,0,0,0,62.14,14.21Z"/><path class="cls-5" d="M118.58,128.12a15.54,15.54,0,1,1-31.07,0V97.06a15.54,15.54,0,1,1,31.07,0Z"/><path class="cls-6" d="M110.82,128.12a7.77,7.77,0,0,1-15.54,0V97.06a7.77,7.77,0,0,1,15.54,0Z"/><path class="cls-4" d="M83,57.91a19.79,19.79,0,0,0-8,0l-2.2-32.8H85.14ZM32.8,100a19.75,19.75,0,0,0,0,8L0,110.25V97.82ZM27.51,43.83,49.15,68.58a20,20,0,0,0-5.68,5.68L18.72,52.62Z"/></g></g></svg>