<svg width="64" height="64" version="1.1" viewBox="0 0 64 64" xml:space="preserve" xmlns="http://www.w3.org/2000/svg"><style>.st0{fill:#003c7d}</style><g id="beeldmerk"><path class="st0" d="m49.2 58.7c-7.1 0-10.7-3.5-10.7-10.4 0-6.5 4.2-10.8 10.6-10.8 3.1 0 4.4 0.5 5.4 0.9l0.4 0.1v4.4h-1.4c-0.7-1.9-1.7-3.5-4.6-3.5-4.8 0-7.6 3.1-7.6 8.4s3 8.4 8.2 8.4c2.5 0 3.8-0.9 4.7-1.1l0.7 1.7c0.1 0.1-2.1 1.9-5.7 1.9zm-25.4-32.4h-15.7c-0.1-0.4-0.1-1.1-0.1-1.5l2-0.5c0.7-0.1 1.2-0.9 1.2-1.7l0.1-4.3v-9.1c0-0.7-0.3-1.6-0.9-1.9l-2-0.5c0-0.3 0-0.9 0.1-1.2h7.7c0.1 0.4 0.1 0.9 0.1 1.3l-1.4 0.4c-0.9 0-1.2 0.1-1.2 1.1v9.9l0.1 6 5.5-0.1c1.8 0 3-1.3 3.5-2.9l1.3 0.3zm8.2-26.3v32h32v-32zm25.1 7.5c-0.4 0.1-0.7 0.3-0.7 1.2v9.9c0 6-4.4 8.1-8.1 8.1-3.9 0-8.1-1.5-8.1-7.3v-10.5c0-0.7-0.3-1.3-0.9-1.5l-1.8-0.7c0-0.3 0-0.8 0.1-1.2h7.8c0.1 0.4 0.1 0.9 0 1.3l-1.7 0.4c-0.5 0.1-0.7 0.4-0.7 0.9v10.7c0 4.1 2.9 5.5 5.4 5.5 3.1 0 5.2-1.6 5.2-6.3v-8.8c0-0.9-0.3-1.6-1.6-2l-1.3-0.4v-1.2h7.6c0.1 0.4 0.1 0.8 0.1 1.2zm-57.1 24.5v32h32v-32zm27.4 26h-6.8c0-0.4-0.1-0.9-0.1-1.2l1.2-0.4c0.9-0.3 1-1.1 1-2 0-0.4 0-0.7-0.1-1.1l-0.3-9.5-0.1-1.5h-0.2l-5.7 12h-1.8l-5.1-12.2h0.1v1.5l-1 11.3c-0.1 0.5 0 0.8 0.3 0.9l2.6 0.8c0 0.3 0 1.1-0.1 1.3h-7c0-0.4-0.1-0.8 0-1.2l1-0.5c0.7-0.4 1.3-1.3 1.4-2.1l1.3-12.7c0.1-0.7-0.3-1.3-0.7-1.6l-1.7-0.5c0-0.3 0-0.8 0.1-1.2h5.2l5 12.7h0.3l5.7-12.7h5c0.1 0.4 0.1 0.7 0.1 1.1l-1.3 0.5c-0.5 0.3-1.2 0.9-1 2.3l1 12.8c0.1 0.7 0.5 1.2 1 1.5l1.2 0.7c-0.3-0.1-0.3 0.7-0.5 1z"/></g></svg>
