<svg xmlns="http://www.w3.org/2000/svg" viewBox="0 0 165.15 270.42"><defs><style>.cls-1{fill:#808285;}.cls-2{fill:#e6e7e8;}.cls-3{fill:#4285F4;}.cls-4{fill:#dcddde;}.cls-5{fill:#f1f2f2;}.cls-6{fill:#d1d3d4;}</style></defs><title>Asset 3</title><g id="Layer_2" data-name="Layer 2"><g id="icons"><path class="cls-1" d="M65.24,66H59V45A19.39,19.39,0,0,0,39.66,25.59H30A25.62,25.62,0,0,1,4.39,0H10.6A19.4,19.4,0,0,0,30,19.37h9.68A25.61,25.61,0,0,1,65.24,45Z"/><path class="cls-2" d="M62.14,169.7A139.06,139.06,0,0,1,0,155.49v52.79a62.14,62.14,0,1,0,124.27,0V155.49A139,139,0,0,1,62.14,169.7"/><path class="cls-3" d="M86.24,66H62.14V169.7a139,139,0,0,0,62.13-14.21V104A38.14,38.14,0,0,0,86.24,66Z"/><path class="cls-4" d="M62.14,66H38A38.15,38.15,0,0,0,0,104v51.47A139.06,139.06,0,0,0,62.14,169.7Z"/><path class="cls-5" d="M77.67,128.12a15.54,15.54,0,1,1-31.07,0V97.06a15.54,15.54,0,1,1,31.07,0Z"/><path class="cls-6" d="M69.9,128.12a7.77,7.77,0,1,1-15.53,0V97.06a7.77,7.77,0,1,1,15.53,0Z"/><path class="cls-3" d="M82.21,57.91a19.75,19.75,0,0,1,8,0l2.2-32.8H80ZM132.35,100a19.75,19.75,0,0,1,0,8l32.8,2.2V97.82Zm5.29-56.19L116,68.58a20,20,0,0,1,5.68,5.68l24.75-21.64Z"/></g></g></svg>