<svg version="1.1" viewBox="0 0 576 512" xmlns="http://www.w3.org/2000/svg">
 <g transform="matrix(-.036921 0 0 -.040486 569.94 440.11)" fill="#fff">
  <path d="m7025 8903c-1414-55-2640-236-3720-547-1512-436-2575-1111-3020-1916-168-305-251-604-262-946-12-365 54-673 212-992 215-431 559-798 1070-1139 648-433 1553-791 2622-1038 661-152 1485-277 2183-330 118-9 225-18 238-21l22-4v-975c0-536 3-975 6-975 12 0 3669 2852 3669 2862 0 6-826 652-1835 1437l-1835 1428-5-931c-4-819-7-931-20-931-33 0-225 17-400 36-1509 158-2863 553-3620 1055-219 145-353 277-396 390-15 40-16 53-5 91 48 183 358 423 856 664 897 435 2214 740 3635 843 434 32 682 40 1220 40 649 0 1062-19 1615-74 1360-136 2601-463 3418-901 394-211 677-464 677-604-1-76-92-203-231-320-362-303-976-584-1779-813l-205-58-3-981-2-981 347 88c834 212 1375 404 1934 686 1088 550 1698 1249 1824 2090 22 143 21 421 0 573-32 225-89 408-195 626-192 396-534 770-1003 1098-1190 833-3267 1367-5707 1467-214 9-1110 11-1305 3z" fill="#fff"/>
 </g>
</svg>
